<?xml version="1.0" standalone="no"?><!DOCTYPE svg PUBLIC "-//W3C//DTD SVG 1.1//EN" "http://www.w3.org/Graphics/SVG/1.1/DTD/svg11.dtd"><svg t="1519467776924" class="icon" style="" viewBox="0 0 1024 1024" version="1.1" xmlns="http://www.w3.org/2000/svg" p-id="515" xmlns:xlink="http://www.w3.org/1999/xlink" width="200" height="200"><defs><style type="text/css"></style></defs><path d="M450.68974 491.589617c85.913473 0 167.871446 32.751545 229.260816 81.799753l16.296663 0 44.934487 0c-49.206428-49.206428-114.709518-90.185414-184.326329-106.482077 81.799753-40.978986 135.119901-122.778739 135.119901-221.191595C692.133498 110.595797 581.695921 0 446.4178 0S200.543881 110.437577 200.543881 245.715698c0 98.254635 57.275649 180.212608 135.119901 221.191595C167.792336 512 40.899876 671.644005 40.899876 860.084054l0 122.778739 491.431397 0 0-40.978986L82.195303 941.883807l0-81.799753C82.195303 655.505562 245.953028 491.589617 450.68974 491.589617zM245.953028 245.873918c0-114.709518 90.185414-204.736712 204.736712-204.736712s204.736712 90.185414 204.736712 204.736712-90.185414 204.736712-204.736712 204.736712S245.953028 360.583436 245.953028 245.873918z" p-id="516" data-spm-anchor-id="a313x.7781069.0.i1" class="" fill="#2d2b2b"></path><path d="M983.100124 860.084054 860.321384 860.084054 860.321384 737.305315 819.184178 737.305315 819.184178 860.084054 696.405439 860.084054 696.405439 901.063041 819.184178 901.063041 819.184178 1024 860.321384 1024 860.321384 901.063041 983.100124 901.063041Z" p-id="517" data-spm-anchor-id="a313x.7781069.0.i0" class="selected" fill="#f9710d"></path></svg>