<svg xmlns="http://www.w3.org/2000/svg" viewBox="0 0 120 120"><defs><style>.cls-1,.cls-4,.cls-6{fill:#ccc;}.cls-2,.cls-3{fill:#fff;}.cls-3,.cls-5,.cls-6{stroke:#ccc;}.cls-3,.cls-4,.cls-5,.cls-6{stroke-miterlimit:10;}.cls-4{stroke:#fff;}.cls-5{fill:none;}.cls-5,.cls-6{stroke-width:0.25px;}.cls-7{fill:#f9710d;}.cls-8{font-size:3px;fill:#b3b3b3;font-family:PingFangSC-Light-GBpc-EUC-H, PingFang SC;}.cls-9{fill:#2d2d2d;}</style></defs><title>buyBookList</title><g id="图层_1" data-name="图层 1"><circle class="cls-1" cx="59" cy="65" r="36.5"/><rect class="cls-1" x="33.21" y="26.62" width="16" height="2.83" rx="1.41" ry="1.41" transform="translate(31.89 -20.93) rotate(45)"/><rect class="cls-1" x="29.71" y="31.9" width="13" height="4.24" rx="2.12" ry="2.12" transform="translate(34.66 -15.64) rotate(45)"/><rect class="cls-2" x="38.16" y="31.04" width="6.36" height="4.24" rx="2.12" ry="2.12" transform="translate(35.55 -19.52) rotate(45)"/><rect class="cls-2" x="30" y="36.48" width="8.69" height="6.36" rx="3.18" ry="3.18" transform="translate(38.1 -12.67) rotate(45)"/><rect class="cls-1" x="25.21" y="23.9" width="6" height="4.24" rx="2.12" ry="2.12" transform="translate(26.66 -12.33) rotate(45)"/><rect class="cls-1" x="21.64" y="39.38" width="13.21" height="6.36" rx="3.18" ry="3.18" transform="translate(38.37 -7.51) rotate(45)"/><rect class="cls-1" x="81.95" y="84.05" width="16" height="3" rx="1.5" ry="1.5" transform="translate(86.84 -38.55) rotate(45)"/><rect class="cls-1" x="75.61" y="90.18" width="11" height="7" rx="3.5" ry="3.5" transform="translate(90 -29.92) rotate(45)"/><rect class="cls-2" x="81.71" y="84.88" width="8" height="7" rx="3.5" ry="3.5" transform="translate(87.6 -34.72) rotate(45)"/><rect class="cls-3" x="70.5" y="18.5" width="4" height="4" rx="2" ry="2"/><rect class="cls-3" x="91.5" y="30.5" width="6" height="6" rx="3" ry="3"/><rect class="cls-1" x="85.5" y="23.19" width="4.5" height="1.12" rx="0.56" ry="0.56"/><rect class="cls-1" x="85.5" y="23.19" width="4.5" height="1.12" rx="0.56" ry="0.56" transform="translate(64 111.5) rotate(-90)"/><rect class="cls-2" x="56.5" y="34.94" width="6.5" height="1.62" rx="0.56" ry="0.56"/><rect class="cls-2" x="56.5" y="34.94" width="6.5" height="1.62" rx="0.56" ry="0.56" transform="translate(24 95.5) rotate(-90)"/><rect class="cls-4" x="81.5" y="50.5" width="4" height="4" rx="2" ry="2"/><rect class="cls-4" x="69.5" y="37.5" width="2" height="2" rx="1" ry="1"/></g><g id="图层_2" data-name="图层 2"><rect class="cls-2" x="38.27" y="45" width="33" height="43" rx="2" ry="2"/><rect class="cls-5" x="66" y="62" width="2" height="2"/><rect class="cls-6" x="43.5" y="62.16" width="16" height="1.68"/><rect class="cls-7" x="66.15" y="62.68" width="1.5" height="0.5" rx="0.25" ry="0.25" transform="translate(35.86 -23.51) rotate(27)"/><rect class="cls-7" x="67.66" y="60.54" width="0.5" height="3" rx="0.25" ry="0.25" transform="translate(35.57 -24.07) rotate(27)"/><rect class="cls-5" x="66" y="66" width="2" height="2"/><rect class="cls-6" x="43.5" y="66.37" width="12" height="1.26"/><rect class="cls-7" x="66.15" y="66.68" width="1.5" height="0.5" rx="0.25" ry="0.25" transform="translate(37.68 -23.08) rotate(27)"/><rect class="cls-7" x="67.66" y="64.54" width="0.5" height="3" rx="0.25" ry="0.25" transform="translate(37.39 -23.63) rotate(27)"/><rect class="cls-5" x="66" y="70" width="2" height="2"/><rect class="cls-6" x="43.5" y="70.26" width="14" height="1.47"/><rect class="cls-5" x="66" y="74" width="2" height="2"/><rect class="cls-6" x="43" y="74.42" width="11" height="1.16"/><rect class="cls-5" x="66" y="78" width="2" height="2"/><rect class="cls-6" x="43.5" y="78.16" width="16" height="1.68"/><text class="cls-8" transform="translate(50.53 57.59)">购书单</text><rect class="cls-1" x="46.27" y="44.5" width="1" height="6" rx="0.5" ry="0.5"/><rect class="cls-1" x="62.27" y="44.5" width="1" height="6" rx="0.5" ry="0.5"/><rect class="cls-1" x="54.27" y="41.5" width="1" height="17" rx="0.5" ry="0.5" transform="translate(4.77 104.77) rotate(-90)"/><path class="cls-9" d="M47.77,48.5h0a.5.5,0,0,1,.5.5v2.5a0,0,0,0,1,0,0h-1a0,0,0,0,1,0,0V49a.5.5,0,0,1,.5-.5Z" transform="translate(-2.23 97.77) rotate(-90)"/><path class="cls-9" d="M46.27,47h1a0,0,0,0,1,0,0v3a.5.5,0,0,1-.5.5h0a.5.5,0,0,1-.5-.5V47A0,0,0,0,1,46.27,47Z"/><path class="cls-9" d="M61.77,48.5h0a.5.5,0,0,1,.5.5v2.5a0,0,0,0,1,0,0h-1a0,0,0,0,1,0,0V49a.5.5,0,0,1,.5-.5Z" transform="translate(111.77 -11.77) rotate(90)"/><path class="cls-9" d="M62.27,47h1a0,0,0,0,1,0,0v3a.5.5,0,0,1-.5.5h0a.5.5,0,0,1-.5-.5V47A0,0,0,0,1,62.27,47Z"/></g></svg>