<svg xmlns="http://www.w3.org/2000/svg" viewBox="0 0 32 32"><defs><style>.cls-1{fill:#f9f9f9;}.cls-2{fill:#f2f2f2;}.cls-3{fill:#e2e2e2;}.cls-4,.cls-6{fill:#fff;}.cls-10,.cls-5,.cls-9{fill:none;}.cls-5,.cls-6{stroke:#2d2d2d;}.cls-10,.cls-11,.cls-12,.cls-5,.cls-6,.cls-9{stroke-miterlimit:10;stroke-width:0.25px;}.cls-11,.cls-7{fill:#f9710d;}.cls-12,.cls-8{fill:#2d2b2b;}.cls-12,.cls-9{stroke:#2d2b2b;}.cls-10,.cls-11{stroke:#f9710d;}</style></defs><title>caculator</title><g id="图层_5" data-name="图层 5"><circle class="cls-1" cx="15.57" cy="15.67" r="12"/></g><g id="图层_4" data-name="图层 4"><path class="cls-2" d="M16,4A12,12,0,1,1,5,20.75Z"/></g><g id="图层_6" data-name="图层 6"><path class="cls-3" d="M20.66,4.94A12,12,0,1,1,8.47,25.35Z"/></g><g id="图层_3" data-name="图层 3"><path class="cls-4" d="M22,7.61V23.73a1,1,0,0,1-1,1H10.1a1,1,0,0,1-1-1V7.61a1,1,0,0,1,1-1H21A1,1,0,0,1,22,7.61Z"/><path class="cls-5" d="M21,24.73H10.1a1,1,0,0,1-1-1V7.61a1,1,0,0,1,1-1H21a1,1,0,0,1,1,1V23.73A1,1,0,0,1,21,24.73Z"/><rect class="cls-6" x="10.72" y="8.21" width="9.69" height="3.73"/><circle class="cls-7" cx="19.61" cy="14.74" r="0.75"/><circle class="cls-8" cx="16.91" cy="14.74" r="0.75"/><circle class="cls-8" cx="14.22" cy="14.74" r="0.75"/><circle class="cls-8" cx="11.53" cy="14.74" r="0.75"/><circle class="cls-9" cx="14.22" cy="14.74" r="0.75"/><circle class="cls-9" cx="16.91" cy="14.74" r="0.75"/><circle class="cls-10" cx="19.61" cy="14.74" r="0.75"/><circle class="cls-9" cx="11.53" cy="14.74" r="0.75"/><circle class="cls-7" cx="19.61" cy="17.22" r="0.75"/><circle class="cls-8" cx="16.91" cy="17.22" r="0.75"/><circle class="cls-8" cx="14.22" cy="17.22" r="0.75"/><circle class="cls-8" cx="11.53" cy="17.22" r="0.75"/><circle class="cls-9" cx="14.22" cy="17.22" r="0.75"/><circle class="cls-9" cx="16.91" cy="17.22" r="0.75"/><circle class="cls-10" cx="19.61" cy="17.22" r="0.75"/><circle class="cls-9" cx="11.53" cy="17.22" r="0.75"/><circle class="cls-7" cx="19.61" cy="19.71" r="0.75"/><circle class="cls-8" cx="16.91" cy="19.71" r="0.75"/><circle class="cls-8" cx="14.22" cy="19.71" r="0.75"/><circle class="cls-8" cx="11.53" cy="19.71" r="0.75"/><circle class="cls-9" cx="14.22" cy="19.71" r="0.75"/><circle class="cls-9" cx="16.91" cy="19.71" r="0.75"/><circle class="cls-10" cx="19.61" cy="19.71" r="0.75"/><circle class="cls-9" cx="11.53" cy="19.71" r="0.75"/><rect class="cls-11" x="10.72" y="21.44" width="6.94" height="1.5" rx="0.5" ry="0.5"/><circle class="cls-12" cx="19.61" cy="22.19" r="0.75"/></g></svg>