<svg xmlns="http://www.w3.org/2000/svg" viewBox="0 0 32 32"><defs><style>.cls-1{fill:#f9f9f9;}.cls-2{fill:#f2f2f2;}.cls-3{fill:#e2e2e2;}.cls-4{fill:#fff;}.cls-5{fill:#d2d2d2;}.cls-10,.cls-6{fill:#f9710d;}.cls-11,.cls-7{fill:#2d2b2b;}.cls-8,.cls-9{fill:none;}.cls-11,.cls-8{stroke:#2d2b2b;}.cls-10,.cls-11,.cls-8,.cls-9{stroke-miterlimit:10;stroke-width:0.25px;}.cls-10,.cls-9{stroke:#f9710d;}</style></defs><title>caculator</title><g id="图层_5" data-name="图层 5"><circle class="cls-1" cx="16" cy="16" r="12"/></g><g id="图层_4" data-name="图层 4"><path class="cls-2" d="M16,4A12,12,0,1,1,5,20.75Z"/></g><g id="图层_6" data-name="图层 6"><path class="cls-3" d="M20.66,4.94A12,12,0,1,1,8.47,25.35Z"/></g><g id="图层_3" data-name="图层 3"><rect class="cls-4" x="10.12" y="7.78" width="11.75" height="16.45" rx="1" ry="1"/><rect class="cls-5" x="11.15" y="9.01" width="9.69" height="3.73"/><circle class="cls-6" cx="20.04" cy="14.78" r="0.75"/><circle class="cls-7" cx="17.35" cy="14.78" r="0.75"/><circle class="cls-7" cx="14.65" cy="14.78" r="0.75"/><circle class="cls-7" cx="11.96" cy="14.78" r="0.75"/><circle class="cls-8" cx="14.65" cy="14.78" r="0.75"/><circle class="cls-8" cx="17.35" cy="14.78" r="0.75"/><circle class="cls-9" cx="20.04" cy="14.78" r="0.75"/><circle class="cls-8" cx="11.96" cy="14.78" r="0.75"/><circle class="cls-6" cx="20.04" cy="17.27" r="0.75"/><circle class="cls-7" cx="17.35" cy="17.27" r="0.75"/><circle class="cls-7" cx="14.65" cy="17.27" r="0.75"/><circle class="cls-7" cx="11.96" cy="17.27" r="0.75"/><circle class="cls-8" cx="14.65" cy="17.27" r="0.75"/><circle class="cls-8" cx="17.35" cy="17.27" r="0.75"/><circle class="cls-9" cx="20.04" cy="17.27" r="0.75"/><circle class="cls-8" cx="11.96" cy="17.27" r="0.75"/><circle class="cls-6" cx="20.04" cy="19.75" r="0.75"/><circle class="cls-7" cx="17.35" cy="19.75" r="0.75"/><circle class="cls-7" cx="14.65" cy="19.75" r="0.75"/><circle class="cls-7" cx="11.96" cy="19.75" r="0.75"/><circle class="cls-8" cx="14.65" cy="19.75" r="0.75"/><circle class="cls-8" cx="17.35" cy="19.75" r="0.75"/><circle class="cls-9" cx="20.04" cy="19.75" r="0.75"/><circle class="cls-8" cx="11.96" cy="19.75" r="0.75"/><rect class="cls-10" x="11.15" y="21.49" width="6.94" height="1.5" rx="0.5" ry="0.5"/><circle class="cls-11" cx="20.04" cy="22.24" r="0.75"/></g></svg>