<svg xmlns="http://www.w3.org/2000/svg" viewBox="0 0 32 32"><defs><style>.cls-1{fill:#f9f9f9;}.cls-2{fill:#f2f2f2;}.cls-3{fill:#e2e2e2;}.cls-4{fill:#fff;}.cls-5{fill:#f9710d;}.cls-6{fill:none;stroke:#d2d2d2;stroke-miterlimit:10;stroke-width:0.5px;}</style></defs><title>contactCard</title><g id="图层_1" data-name="图层 1"><circle class="cls-1" cx="16" cy="16" r="12"/><path class="cls-2" d="M16,4A12,12,0,1,1,5,20.75Z"/><path class="cls-3" d="M20.66,4.94A12,12,0,1,1,8.47,25.35Z"/></g><g id="图层_2" data-name="图层 2"><rect class="cls-4" x="7" y="10.13" width="18" height="11.45" rx="1" ry="1"/></g><g id="图层_3" data-name="图层 3"><rect class="cls-5" x="10" y="12.14" width="4" height="4" rx="2" ry="2"/><line class="cls-6" x1="15" y1="12.64" x2="22" y2="12.64"/><line class="cls-6" x1="15" y1="13.64" x2="20" y2="13.64"/><line class="cls-6" x1="15" y1="15.64" x2="19" y2="15.64"/><line class="cls-6" x1="15" y1="14.64" x2="22" y2="14.64"/><line class="cls-6" x1="10" y1="19.57" x2="19.23" y2="19.57"/><line class="cls-6" x1="10" y1="17.72" x2="22" y2="17.72"/><line class="cls-6" x1="10" y1="18.64" x2="20.15" y2="18.64"/></g></svg>