<svg xmlns="http://www.w3.org/2000/svg" viewBox="0 0 120 120"><defs><style>.cls-1,.cls-4{fill:#ccc;}.cls-2,.cls-3{fill:#fff;}.cls-3,.cls-5{stroke:#ccc;}.cls-3,.cls-4,.cls-5,.cls-6{stroke-miterlimit:10;}.cls-4{stroke:#fff;}.cls-5,.cls-6{fill:none;}.cls-6{stroke:#f7931e;}.cls-7{fill:#f7931e;}</style></defs><title>document</title><g id="图层_2" data-name="图层 2"><circle class="cls-1" cx="60" cy="60" r="36.5"/></g><g id="图层_1" data-name="图层 1"><rect class="cls-1" x="34.21" y="21.62" width="16" height="2.83" rx="1.41" ry="1.41" transform="translate(28.65 -23.1) rotate(45)"/><rect class="cls-1" x="30.71" y="26.9" width="13" height="4.24" rx="2.12" ry="2.12" transform="translate(31.42 -17.81) rotate(45)"/><rect class="cls-2" x="39.16" y="26.04" width="6.36" height="4.24" rx="2.12" ry="2.12" transform="translate(32.31 -21.69) rotate(45)"/><rect class="cls-2" x="31" y="31.48" width="8.69" height="6.36" rx="3.18" ry="3.18" transform="translate(34.86 -14.84) rotate(45)"/><rect class="cls-1" x="26.21" y="18.9" width="6" height="4.24" rx="2.12" ry="2.12" transform="translate(23.42 -14.5) rotate(45)"/><rect class="cls-1" x="22.64" y="34.38" width="13.21" height="6.36" rx="3.18" ry="3.18" transform="translate(35.12 -9.68) rotate(45)"/><rect class="cls-1" x="82.95" y="79.05" width="16" height="3" rx="1.5" ry="1.5" transform="translate(83.6 -40.72) rotate(45)"/><rect class="cls-1" x="76.61" y="85.18" width="11" height="7" rx="3.5" ry="3.5" transform="translate(86.76 -32.09) rotate(45)"/><rect class="cls-2" x="82.71" y="79.88" width="8" height="7" rx="3.5" ry="3.5" transform="translate(84.35 -36.89) rotate(45)"/><rect class="cls-3" x="71.5" y="13.5" width="4" height="4" rx="2" ry="2"/><rect class="cls-3" x="92.5" y="25.5" width="6" height="6" rx="3" ry="3"/><rect class="cls-1" x="86.5" y="18.19" width="4.5" height="1.12" rx="0.56" ry="0.56"/><rect class="cls-1" x="86.5" y="18.19" width="4.5" height="1.12" rx="0.56" ry="0.56" transform="translate(70 107.5) rotate(-90)"/><rect class="cls-2" x="57.5" y="29.94" width="6.5" height="1.62" rx="0.56" ry="0.56"/><rect class="cls-2" x="57.5" y="29.94" width="6.5" height="1.62" rx="0.56" ry="0.56" transform="translate(30 91.5) rotate(-90)"/><rect class="cls-4" x="82.5" y="45.5" width="4" height="4" rx="2" ry="2"/><rect class="cls-4" x="70.5" y="32.5" width="2" height="2" rx="1" ry="1"/></g><g id="图层_3" data-name="图层 3"><rect class="cls-2" x="41" y="42" width="30" height="40" rx="3" ry="3"/><line class="cls-5" x1="45.5" y1="66" x2="61.5" y2="66"/><line class="cls-6" x1="45.5" y1="69.5" x2="59.5" y2="69.5"/><line class="cls-5" x1="45.5" y1="50.5" x2="56.5" y2="50.5"/><line class="cls-5" x1="45.5" y1="53.5" x2="53.5" y2="53.5"/><line class="cls-5" x1="45.5" y1="56.5" x2="57.5" y2="56.5"/><line class="cls-5" x1="45.5" y1="59.5" x2="52.5" y2="59.5"/><line class="cls-5" x1="45.5" y1="62.5" x2="54.5" y2="62.5"/><rect class="cls-1" x="61.5" y="50" width="7" height="8"/><circle class="cls-7" cx="81.25" cy="57" r="1.25"/><path class="cls-2" d="M80,57.13h2.5a0,0,0,0,1,0,0V72.75A1.25,1.25,0,0,1,81.25,74h0A1.25,1.25,0,0,1,80,72.75V57.13A0,0,0,0,1,80,57.13Z"/><line class="cls-6" x1="45.5" y1="75.5" x2="62.5" y2="75.5"/><line class="cls-6" x1="45.5" y1="72.5" x2="56" y2="72.5"/></g></svg>