<svg xmlns="http://www.w3.org/2000/svg" viewBox="0 0 120 120"><defs><style>.cls-1{fill:#fff;}.cls-2{fill:#4e9de5;stroke:#4e9de5;}.cls-13,.cls-2,.cls-3,.cls-4{stroke-miterlimit:10;stroke-width:0.25px;}.cls-3,.cls-9{fill:#f4a721;}.cls-3{stroke:#f4a721;}.cls-4,.cls-6{fill:#2b2b2b;opacity:0.25;}.cls-4{stroke:#2b2b2b;}.cls-5{fill:#449144;}.cls-7{fill:#e5e5e5;opacity:0.72;}.cls-8{fill:#f73d34;}.cls-10{fill:#cc7e2f;}.cls-11{fill:#e89142;}.cls-12{fill:#efefef;}.cls-13{fill:none;stroke:#bababa;}</style></defs><title>gcuHelper</title><g id="图层_4" data-name="图层 4"><circle class="cls-1" cx="60" cy="60" r="60"/></g><g id="图层_5" data-name="图层 5"><rect class="cls-2" x="50" y="32" width="14" height="48" rx="3" ry="3"/><rect class="cls-3" x="50" y="41" width="14" height="7"/><path class="cls-4" d="M53,32h3a0,0,0,0,1,0,0V80a0,0,0,0,1,0,0H53a3,3,0,0,1-3-3V35a3,3,0,0,1,3-3Z"/><rect class="cls-5" x="64" y="28" width="11" height="53" rx="2" ry="2"/><path class="cls-6" d="M66,28h2a0,0,0,0,1,0,0V81a0,0,0,0,1,0,0H66a2,2,0,0,1-2-2V30a2,2,0,0,1,2-2Z"/><rect class="cls-7" x="70" y="44.56" width="3" height="19.88" rx="1" ry="1"/><rect class="cls-7" x="70" y="40.42" width="3" height="1.66" rx="0.83" ry="0.83"/><rect class="cls-8" x="75" y="42" width="14" height="39" rx="1" ry="1"/><rect class="cls-9" x="75" y="59" width="14" height="10"/><rect class="cls-9" x="75" y="54" width="14" height="2"/><path class="cls-6" d="M76,42h4a0,0,0,0,1,0,0V81a0,0,0,0,1,0,0H76a1,1,0,0,1-1-1V43A1,1,0,0,1,76,42Z"/></g><g id="图层_1" data-name="图层 1"><rect class="cls-10" x="19" y="81" width="82" height="11"/><rect class="cls-11" x="19" y="81" width="82" height="5"/></g><g id="图层_2" data-name="图层 2"><path class="cls-12" d="M76,81H31V27m7,20.2V74.8H61"/><line class="cls-13" x1="73.84" y1="78.3" x2="72.3" y2="79.58"/><line class="cls-13" x1="71.47" y1="75.48" x2="69.94" y2="76.77"/><line class="cls-13" x1="69.11" y1="72.67" x2="67.58" y2="73.96"/><line class="cls-13" x1="66.75" y1="69.86" x2="65.22" y2="71.14"/><line class="cls-13" x1="64.39" y1="67.04" x2="62.86" y2="68.33"/><line class="cls-13" x1="50.22" y1="50.16" x2="48.69" y2="51.44"/><line class="cls-13" x1="47.86" y1="47.34" x2="46.33" y2="48.63"/><line class="cls-13" x1="45.5" y1="44.53" x2="43.97" y2="45.82"/><line class="cls-13" x1="43.14" y1="41.72" x2="41.61" y2="43"/><line class="cls-13" x1="40.78" y1="38.9" x2="39.25" y2="40.19"/><line class="cls-13" x1="38.42" y1="36.09" x2="36.89" y2="37.37"/><line class="cls-13" x1="62.03" y1="64.23" x2="60.5" y2="65.51"/><line class="cls-13" x1="59.67" y1="61.41" x2="58.14" y2="62.7"/><line class="cls-13" x1="57.31" y1="58.6" x2="55.78" y2="59.89"/><line class="cls-13" x1="54.95" y1="55.79" x2="53.41" y2="57.07"/><line class="cls-13" x1="52.58" y1="52.97" x2="51.05" y2="54.26"/><line class="cls-13" x1="31" y1="37" x2="33" y2="37"/><line class="cls-13" x1="31" y1="41.2" x2="33" y2="41.2"/><line class="cls-13" x1="31" y1="45.4" x2="33" y2="45.4"/><line class="cls-13" x1="31" y1="49.6" x2="33" y2="49.6"/><line class="cls-13" x1="31" y1="53.8" x2="33" y2="53.8"/><line class="cls-13" x1="31" y1="58" x2="33" y2="58"/><line class="cls-13" x1="31" y1="62.2" x2="33" y2="62.2"/><line class="cls-13" x1="31" y1="66.4" x2="33" y2="66.4"/><line class="cls-13" x1="31" y1="70.6" x2="33" y2="70.6"/><line class="cls-13" x1="31" y1="74.8" x2="33" y2="74.8"/><line class="cls-13" x1="31" y1="79" x2="33" y2="79"/></g></svg>