<svg xmlns="http://www.w3.org/2000/svg" xmlns:xlink="http://www.w3.org/1999/xlink" viewBox="0 0 32 32"><defs><style>.cls-1,.cls-7{fill:none;}.cls-2{fill:#f9f9f9;}.cls-3{fill:#f2f2f2;}.cls-4{fill:#e2e2e2;}.cls-5{fill:#fff;}.cls-6{clip-path:url(#clip-path);}.cls-7{stroke:#d2d2d2;stroke-miterlimit:10;}.cls-8{fill:#f9710d;}</style><clipPath id="clip-path"><rect class="cls-1" x="7.5" y="9.52" width="17" height="12.95" rx="1" ry="1"/></clipPath></defs><title>map</title><g id="图层_1" data-name="图层 1"><circle class="cls-2" cx="16" cy="16" r="12"/><path class="cls-3" d="M16,4A12,12,0,1,1,5,20.75Z"/><path class="cls-4" d="M20.66,4.94A12,12,0,1,1,8.47,25.35Z"/></g><g id="图层_2" data-name="图层 2"><rect class="cls-5" x="7.5" y="9.52" width="17" height="12.95" rx="1" ry="1"/><g class="cls-6"><line class="cls-7" x1="6.5" y1="21.5" x2="25.5" y2="17.5"/><line class="cls-7" x1="22.5" y1="8.5" x2="19.5" y2="23.5"/><line class="cls-7" x1="6.5" y1="12.5" x2="25.5" y2="12.5"/></g><path class="cls-8" d="M8.89,12.24a3,3,0,0,1,5.76,0A3.79,3.79,0,0,1,14,14.8,31.79,31.79,0,0,1,11.77,18c-.32-.43-2.15-3-2.24-3.2A3.84,3.84,0,0,1,8.89,12.24Z"/><rect class="cls-5" x="10.47" y="11.26" width="2.6" height="2.6" rx="1.3" ry="1.3"/></g></svg>