<?xml version="1.0" standalone="no"?><!DOCTYPE svg PUBLIC "-//W3C//DTD SVG 1.1//EN" "http://www.w3.org/Graphics/SVG/1.1/DTD/svg11.dtd"><svg t="1519467742689" class="icon" style="" viewBox="0 0 1024 1024" version="1.1" xmlns="http://www.w3.org/2000/svg" p-id="9699" xmlns:xlink="http://www.w3.org/1999/xlink" width="200" height="200"><defs><style type="text/css"></style></defs><path d="M668.00128 816.96768c-51.88608 0-177.9968-66.3552-283.90912-208.77824-99.05664-133.20704-147.21024-229.44256-147.21024-294.1952 0-50.99008 35.21024-75.32032 54.12352-88.39168l4.66944-3.25632c20.89984-14.94528 53.4016-19.77856 65.85344-19.77856 21.84704 0 31.0528 12.78976 36.6336 23.93088 4.73088 9.4208 43.97568 93.70112 47.95392 104.17664 6.09792 16.11264 4.09088 39.58784-14.77632 53.08928l-3.30752 2.30912c-9.3696 6.49216-26.78784 18.56-29.19936 33.22368-1.1776 7.13728 1.20832 14.592 7.30112 22.79936 30.37696 40.9344 127.36512 161.12128 144.85504 177.44896 13.70112 12.8 31.0528 14.6176 42.88 4.65408 12.23168-10.3168 17.664-16.39936 17.72032-16.47104l1.2544-1.20832c1.03424-0.86528 10.58816-8.44288 26.20928-8.44288 11.26912 0 22.7328 3.8912 34.05312 11.5456 29.4144 19.8656 95.7696 64.256 95.7696 64.256l1.0752 0.80896c8.48896 7.28064 20.75648 28.2368 6.45632 55.51616-14.82752 28.30848-60.83584 86.76352-108.40576 86.76352zM361.5232 225.32608c-10.7776 0-37.26848 4.5568-52.6336 15.53408l-4.9408 3.456c-17.64352 12.20096-44.3136 30.62272-44.3136 69.67808 0 59.68896 46.68928 151.4752 142.72 280.62208 104.87808 141.056 224.768 199.59808 265.64096 199.59808 34.76992 0 74.624-48.5632 88.2432-74.56256 8.3712-15.96928 1.52576-24.97024-0.8448-27.40224-7.67488-5.1456-67.52256-45.17888-95.03232-63.7696-7.5008-5.07392-14.67904-7.64416-21.3248-7.64416-6.03136 0-9.99936 2.14528-11.34592 2.99008-2.22208 2.3808-8.33024 8.63744-19.1744 17.78176-20.3008 17.08544-51.17952 15.03232-73.07776-5.4272-19.69664-18.39104-119.19872-142.26432-147.58912-180.52096-9.82016-13.2352-13.68576-26.71104-11.48928-40.05888 3.98848-24.18688 26.56256-39.82336 38.70208-48.22016l3.0208-2.11968c10.83392-7.74656 8.54528-21.76512 6.74304-26.51136-3.3536-8.832-42.10176-92.24704-47.01184-102.04672-4.01408-8.02304-7.168-11.37664-16.29184-11.37664z" fill="#2d2b2b" p-id="9700"></path></svg>